<mxfile host="app.diagrams.net" modified="2024-07-21T13:04:40.257Z" agent="Mozilla/5.0 (Windows NT 10.0; Win64; x64; rv:109.0) Gecko/20100101 Firefox/115.0" etag="mNzkI3TF0H_DIh2CkF5W" version="24.7.2" type="device">
  <diagram name="Page-1" id="nSLGUAHA-Zbq8DlJS5If">
    <mxGraphModel dx="796" dy="430" grid="1" gridSize="10" guides="1" tooltips="1" connect="1" arrows="1" fold="1" page="1" pageScale="1" pageWidth="850" pageHeight="1100" math="0" shadow="0">
      <root>
        <mxCell id="0" />
        <mxCell id="1" parent="0" />
        <mxCell id="IzKSU4AfZoBt4SEV6XKU-39" style="edgeStyle=orthogonalEdgeStyle;rounded=0;orthogonalLoop=1;jettySize=auto;html=1;entryX=0;entryY=0.5;entryDx=0;entryDy=0;" edge="1" parent="1" source="IzKSU4AfZoBt4SEV6XKU-34" target="IzKSU4AfZoBt4SEV6XKU-35">
          <mxGeometry relative="1" as="geometry" />
        </mxCell>
        <mxCell id="IzKSU4AfZoBt4SEV6XKU-40" style="edgeStyle=orthogonalEdgeStyle;rounded=0;orthogonalLoop=1;jettySize=auto;html=1;entryX=0;entryY=0.5;entryDx=0;entryDy=0;" edge="1" parent="1" source="IzKSU4AfZoBt4SEV6XKU-34" target="IzKSU4AfZoBt4SEV6XKU-36">
          <mxGeometry relative="1" as="geometry" />
        </mxCell>
        <mxCell id="IzKSU4AfZoBt4SEV6XKU-42" style="edgeStyle=orthogonalEdgeStyle;rounded=0;orthogonalLoop=1;jettySize=auto;html=1;entryX=0;entryY=0.5;entryDx=0;entryDy=0;" edge="1" parent="1" source="IzKSU4AfZoBt4SEV6XKU-34" target="IzKSU4AfZoBt4SEV6XKU-38">
          <mxGeometry relative="1" as="geometry" />
        </mxCell>
        <mxCell id="IzKSU4AfZoBt4SEV6XKU-66" style="edgeStyle=orthogonalEdgeStyle;rounded=0;orthogonalLoop=1;jettySize=auto;html=1;entryX=0;entryY=0.5;entryDx=0;entryDy=0;" edge="1" parent="1" source="IzKSU4AfZoBt4SEV6XKU-34" target="IzKSU4AfZoBt4SEV6XKU-37">
          <mxGeometry relative="1" as="geometry" />
        </mxCell>
        <mxCell id="IzKSU4AfZoBt4SEV6XKU-34" value="Home" style="rounded=0;whiteSpace=wrap;html=1;" vertex="1" parent="1">
          <mxGeometry x="10" y="180" width="120" height="60" as="geometry" />
        </mxCell>
        <mxCell id="IzKSU4AfZoBt4SEV6XKU-62" style="edgeStyle=orthogonalEdgeStyle;rounded=0;orthogonalLoop=1;jettySize=auto;html=1;" edge="1" parent="1" source="IzKSU4AfZoBt4SEV6XKU-35">
          <mxGeometry relative="1" as="geometry">
            <mxPoint x="159.9999999999999" y="50" as="targetPoint" />
          </mxGeometry>
        </mxCell>
        <mxCell id="IzKSU4AfZoBt4SEV6XKU-35" value="Search" style="rounded=0;whiteSpace=wrap;html=1;" vertex="1" parent="1">
          <mxGeometry x="190" y="20" width="120" height="60" as="geometry" />
        </mxCell>
        <mxCell id="IzKSU4AfZoBt4SEV6XKU-50" style="edgeStyle=orthogonalEdgeStyle;rounded=0;orthogonalLoop=1;jettySize=auto;html=1;exitX=0;exitY=0.5;exitDx=0;exitDy=0;entryX=1;entryY=0.5;entryDx=0;entryDy=0;" edge="1" parent="1" source="IzKSU4AfZoBt4SEV6XKU-36" target="IzKSU4AfZoBt4SEV6XKU-34">
          <mxGeometry relative="1" as="geometry" />
        </mxCell>
        <mxCell id="IzKSU4AfZoBt4SEV6XKU-63" style="edgeStyle=orthogonalEdgeStyle;rounded=0;orthogonalLoop=1;jettySize=auto;html=1;" edge="1" parent="1" source="IzKSU4AfZoBt4SEV6XKU-36">
          <mxGeometry relative="1" as="geometry">
            <mxPoint x="159.9999999999999" y="130" as="targetPoint" />
          </mxGeometry>
        </mxCell>
        <mxCell id="IzKSU4AfZoBt4SEV6XKU-36" value="Notification" style="rounded=0;whiteSpace=wrap;html=1;" vertex="1" parent="1">
          <mxGeometry x="190" y="100" width="120" height="60" as="geometry" />
        </mxCell>
        <mxCell id="IzKSU4AfZoBt4SEV6XKU-64" style="edgeStyle=orthogonalEdgeStyle;rounded=0;orthogonalLoop=1;jettySize=auto;html=1;" edge="1" parent="1" source="IzKSU4AfZoBt4SEV6XKU-37">
          <mxGeometry relative="1" as="geometry">
            <mxPoint x="159.9999999999999" y="300" as="targetPoint" />
          </mxGeometry>
        </mxCell>
        <mxCell id="IzKSU4AfZoBt4SEV6XKU-70" style="edgeStyle=orthogonalEdgeStyle;rounded=0;orthogonalLoop=1;jettySize=auto;html=1;" edge="1" parent="1" source="IzKSU4AfZoBt4SEV6XKU-37" target="IzKSU4AfZoBt4SEV6XKU-71">
          <mxGeometry relative="1" as="geometry">
            <mxPoint x="419.9999999999998" y="300" as="targetPoint" />
          </mxGeometry>
        </mxCell>
        <mxCell id="IzKSU4AfZoBt4SEV6XKU-75" style="edgeStyle=orthogonalEdgeStyle;rounded=0;orthogonalLoop=1;jettySize=auto;html=1;entryX=0;entryY=0.5;entryDx=0;entryDy=0;" edge="1" parent="1" source="IzKSU4AfZoBt4SEV6XKU-37" target="IzKSU4AfZoBt4SEV6XKU-74">
          <mxGeometry relative="1" as="geometry" />
        </mxCell>
        <mxCell id="IzKSU4AfZoBt4SEV6XKU-37" value="Playlist" style="rounded=0;whiteSpace=wrap;html=1;" vertex="1" parent="1">
          <mxGeometry x="190" y="270" width="120" height="60" as="geometry" />
        </mxCell>
        <mxCell id="IzKSU4AfZoBt4SEV6XKU-56" value="" style="edgeStyle=orthogonalEdgeStyle;rounded=0;orthogonalLoop=1;jettySize=auto;html=1;" edge="1" parent="1" source="IzKSU4AfZoBt4SEV6XKU-38" target="IzKSU4AfZoBt4SEV6XKU-55">
          <mxGeometry relative="1" as="geometry" />
        </mxCell>
        <mxCell id="IzKSU4AfZoBt4SEV6XKU-65" style="edgeStyle=orthogonalEdgeStyle;rounded=0;orthogonalLoop=1;jettySize=auto;html=1;" edge="1" parent="1" source="IzKSU4AfZoBt4SEV6XKU-38">
          <mxGeometry relative="1" as="geometry">
            <mxPoint x="159.9999999999999" y="390" as="targetPoint" />
          </mxGeometry>
        </mxCell>
        <mxCell id="IzKSU4AfZoBt4SEV6XKU-38" value="Avatar" style="rounded=0;whiteSpace=wrap;html=1;" vertex="1" parent="1">
          <mxGeometry x="190" y="360" width="120" height="60" as="geometry" />
        </mxCell>
        <mxCell id="IzKSU4AfZoBt4SEV6XKU-57" style="edgeStyle=orthogonalEdgeStyle;rounded=0;orthogonalLoop=1;jettySize=auto;html=1;" edge="1" parent="1" source="IzKSU4AfZoBt4SEV6XKU-55" target="IzKSU4AfZoBt4SEV6XKU-58">
          <mxGeometry relative="1" as="geometry">
            <mxPoint x="390" y="470" as="targetPoint" />
          </mxGeometry>
        </mxCell>
        <mxCell id="IzKSU4AfZoBt4SEV6XKU-61" style="edgeStyle=orthogonalEdgeStyle;rounded=0;orthogonalLoop=1;jettySize=auto;html=1;entryX=0.5;entryY=0;entryDx=0;entryDy=0;" edge="1" parent="1" source="IzKSU4AfZoBt4SEV6XKU-55" target="IzKSU4AfZoBt4SEV6XKU-60">
          <mxGeometry relative="1" as="geometry" />
        </mxCell>
        <mxCell id="IzKSU4AfZoBt4SEV6XKU-55" value="Is Clicked" style="rhombus;whiteSpace=wrap;html=1;rounded=0;" vertex="1" parent="1">
          <mxGeometry x="210" y="440" width="80" height="80" as="geometry" />
        </mxCell>
        <mxCell id="IzKSU4AfZoBt4SEV6XKU-68" style="edgeStyle=orthogonalEdgeStyle;rounded=0;orthogonalLoop=1;jettySize=auto;html=1;exitX=0.5;exitY=1;exitDx=0;exitDy=0;entryX=0.5;entryY=0;entryDx=0;entryDy=0;" edge="1" parent="1" source="IzKSU4AfZoBt4SEV6XKU-58">
          <mxGeometry relative="1" as="geometry">
            <mxPoint x="180" y="660" as="targetPoint" />
          </mxGeometry>
        </mxCell>
        <mxCell id="IzKSU4AfZoBt4SEV6XKU-58" value="Login Page" style="rounded=0;whiteSpace=wrap;html=1;" vertex="1" parent="1">
          <mxGeometry x="120" y="560" width="120" height="60" as="geometry" />
        </mxCell>
        <mxCell id="IzKSU4AfZoBt4SEV6XKU-60" value="Settings" style="rounded=0;whiteSpace=wrap;html=1;" vertex="1" parent="1">
          <mxGeometry x="270" y="560" width="120" height="60" as="geometry" />
        </mxCell>
        <mxCell id="IzKSU4AfZoBt4SEV6XKU-69" style="edgeStyle=orthogonalEdgeStyle;rounded=0;orthogonalLoop=1;jettySize=auto;html=1;entryX=0.5;entryY=1;entryDx=0;entryDy=0;" edge="1" parent="1" target="IzKSU4AfZoBt4SEV6XKU-34">
          <mxGeometry relative="1" as="geometry">
            <mxPoint x="140" y="700" as="sourcePoint" />
          </mxGeometry>
        </mxCell>
        <mxCell id="IzKSU4AfZoBt4SEV6XKU-67" value="&lt;div&gt;Clicks&lt;/div&gt;&lt;div&gt;Log In&lt;br&gt;&lt;/div&gt;" style="rhombus;whiteSpace=wrap;html=1;" vertex="1" parent="1">
          <mxGeometry x="140" y="660" width="80" height="80" as="geometry" />
        </mxCell>
        <mxCell id="IzKSU4AfZoBt4SEV6XKU-72" style="edgeStyle=orthogonalEdgeStyle;rounded=0;orthogonalLoop=1;jettySize=auto;html=1;" edge="1" parent="1" source="IzKSU4AfZoBt4SEV6XKU-71" target="IzKSU4AfZoBt4SEV6XKU-73">
          <mxGeometry relative="1" as="geometry">
            <mxPoint x="520" y="300" as="targetPoint" />
          </mxGeometry>
        </mxCell>
        <mxCell id="IzKSU4AfZoBt4SEV6XKU-71" value="&lt;div style=&quot;font-size: 11px;&quot;&gt;&lt;font style=&quot;font-size: 11px;&quot;&gt;Play Button&lt;/font&gt;&lt;/div&gt;&lt;div style=&quot;font-size: 11px;&quot;&gt;&lt;font style=&quot;font-size: 11px;&quot;&gt;Clicked&lt;font style=&quot;font-size: 11px;&quot;&gt;&lt;br&gt;&lt;/font&gt;&lt;/font&gt;&lt;/div&gt;" style="rhombus;whiteSpace=wrap;html=1;" vertex="1" parent="1">
          <mxGeometry x="360" y="200" width="70" height="70" as="geometry" />
        </mxCell>
        <mxCell id="IzKSU4AfZoBt4SEV6XKU-89" style="edgeStyle=orthogonalEdgeStyle;rounded=0;orthogonalLoop=1;jettySize=auto;html=1;entryX=0;entryY=0.5;entryDx=0;entryDy=0;" edge="1" parent="1" source="IzKSU4AfZoBt4SEV6XKU-73" target="IzKSU4AfZoBt4SEV6XKU-79">
          <mxGeometry relative="1" as="geometry" />
        </mxCell>
        <mxCell id="IzKSU4AfZoBt4SEV6XKU-90" style="edgeStyle=orthogonalEdgeStyle;rounded=0;orthogonalLoop=1;jettySize=auto;html=1;entryX=0;entryY=0.5;entryDx=0;entryDy=0;" edge="1" parent="1" source="IzKSU4AfZoBt4SEV6XKU-73" target="IzKSU4AfZoBt4SEV6XKU-80">
          <mxGeometry relative="1" as="geometry" />
        </mxCell>
        <mxCell id="IzKSU4AfZoBt4SEV6XKU-91" style="edgeStyle=orthogonalEdgeStyle;rounded=0;orthogonalLoop=1;jettySize=auto;html=1;entryX=0;entryY=0.5;entryDx=0;entryDy=0;" edge="1" parent="1" source="IzKSU4AfZoBt4SEV6XKU-73" target="IzKSU4AfZoBt4SEV6XKU-81">
          <mxGeometry relative="1" as="geometry" />
        </mxCell>
        <mxCell id="IzKSU4AfZoBt4SEV6XKU-92" style="edgeStyle=orthogonalEdgeStyle;rounded=0;orthogonalLoop=1;jettySize=auto;html=1;entryX=0;entryY=0.5;entryDx=0;entryDy=0;" edge="1" parent="1" source="IzKSU4AfZoBt4SEV6XKU-73" target="IzKSU4AfZoBt4SEV6XKU-82">
          <mxGeometry relative="1" as="geometry" />
        </mxCell>
        <mxCell id="IzKSU4AfZoBt4SEV6XKU-93" style="edgeStyle=orthogonalEdgeStyle;rounded=0;orthogonalLoop=1;jettySize=auto;html=1;entryX=0;entryY=0.5;entryDx=0;entryDy=0;" edge="1" parent="1" source="IzKSU4AfZoBt4SEV6XKU-73" target="IzKSU4AfZoBt4SEV6XKU-83">
          <mxGeometry relative="1" as="geometry" />
        </mxCell>
        <mxCell id="IzKSU4AfZoBt4SEV6XKU-73" value="&lt;div&gt;Song Starts Playing&lt;/div&gt;&lt;div&gt;from Index 1&lt;br&gt;&lt;/div&gt;" style="rounded=0;whiteSpace=wrap;html=1;" vertex="1" parent="1">
          <mxGeometry x="470" y="205" width="80" height="60" as="geometry" />
        </mxCell>
        <mxCell id="IzKSU4AfZoBt4SEV6XKU-78" style="edgeStyle=orthogonalEdgeStyle;rounded=0;orthogonalLoop=1;jettySize=auto;html=1;entryX=0;entryY=0.5;entryDx=0;entryDy=0;" edge="1" parent="1" source="IzKSU4AfZoBt4SEV6XKU-74" target="IzKSU4AfZoBt4SEV6XKU-76">
          <mxGeometry relative="1" as="geometry" />
        </mxCell>
        <mxCell id="IzKSU4AfZoBt4SEV6XKU-74" value="Song Clicked" style="rhombus;whiteSpace=wrap;html=1;" vertex="1" parent="1">
          <mxGeometry x="360" y="320" width="70" height="70" as="geometry" />
        </mxCell>
        <mxCell id="IzKSU4AfZoBt4SEV6XKU-94" style="edgeStyle=orthogonalEdgeStyle;rounded=0;orthogonalLoop=1;jettySize=auto;html=1;entryX=0;entryY=0.5;entryDx=0;entryDy=0;" edge="1" parent="1" source="IzKSU4AfZoBt4SEV6XKU-76" target="IzKSU4AfZoBt4SEV6XKU-81">
          <mxGeometry relative="1" as="geometry" />
        </mxCell>
        <mxCell id="IzKSU4AfZoBt4SEV6XKU-76" value="The Clicked Song starts playing" style="rounded=0;whiteSpace=wrap;html=1;" vertex="1" parent="1">
          <mxGeometry x="470" y="325" width="80" height="60" as="geometry" />
        </mxCell>
        <mxCell id="IzKSU4AfZoBt4SEV6XKU-96" style="edgeStyle=orthogonalEdgeStyle;rounded=0;orthogonalLoop=1;jettySize=auto;html=1;exitX=1;exitY=0.5;exitDx=0;exitDy=0;entryX=0;entryY=0.5;entryDx=0;entryDy=0;" edge="1" parent="1" source="IzKSU4AfZoBt4SEV6XKU-79" target="IzKSU4AfZoBt4SEV6XKU-84">
          <mxGeometry relative="1" as="geometry">
            <mxPoint x="690" y="160" as="targetPoint" />
          </mxGeometry>
        </mxCell>
        <mxCell id="IzKSU4AfZoBt4SEV6XKU-79" value="&lt;div&gt;Click&lt;/div&gt;&lt;div&gt;Next&lt;br&gt;&lt;/div&gt;" style="rhombus;whiteSpace=wrap;html=1;" vertex="1" parent="1">
          <mxGeometry x="600" y="120" width="80" height="80" as="geometry" />
        </mxCell>
        <mxCell id="IzKSU4AfZoBt4SEV6XKU-108" style="edgeStyle=orthogonalEdgeStyle;rounded=0;orthogonalLoop=1;jettySize=auto;html=1;entryX=0;entryY=0.5;entryDx=0;entryDy=0;" edge="1" parent="1" source="IzKSU4AfZoBt4SEV6XKU-80" target="IzKSU4AfZoBt4SEV6XKU-85">
          <mxGeometry relative="1" as="geometry" />
        </mxCell>
        <mxCell id="IzKSU4AfZoBt4SEV6XKU-80" value="&lt;div&gt;Click &lt;br&gt;&lt;/div&gt;&lt;div&gt;Previous&lt;br&gt;&lt;/div&gt;" style="rhombus;whiteSpace=wrap;html=1;" vertex="1" parent="1">
          <mxGeometry x="600" y="210" width="80" height="80" as="geometry" />
        </mxCell>
        <mxCell id="IzKSU4AfZoBt4SEV6XKU-81" value="Click Play/Pause" style="rhombus;whiteSpace=wrap;html=1;" vertex="1" parent="1">
          <mxGeometry x="600" y="315" width="80" height="80" as="geometry" />
        </mxCell>
        <mxCell id="IzKSU4AfZoBt4SEV6XKU-111" style="edgeStyle=orthogonalEdgeStyle;rounded=0;orthogonalLoop=1;jettySize=auto;html=1;exitX=1;exitY=0.5;exitDx=0;exitDy=0;" edge="1" parent="1" source="IzKSU4AfZoBt4SEV6XKU-82" target="IzKSU4AfZoBt4SEV6XKU-87">
          <mxGeometry relative="1" as="geometry" />
        </mxCell>
        <mxCell id="IzKSU4AfZoBt4SEV6XKU-82" value="Seek Song" style="rhombus;whiteSpace=wrap;html=1;" vertex="1" parent="1">
          <mxGeometry x="600" y="410" width="80" height="80" as="geometry" />
        </mxCell>
        <mxCell id="IzKSU4AfZoBt4SEV6XKU-112" style="edgeStyle=orthogonalEdgeStyle;rounded=0;orthogonalLoop=1;jettySize=auto;html=1;exitX=1;exitY=0.5;exitDx=0;exitDy=0;" edge="1" parent="1" source="IzKSU4AfZoBt4SEV6XKU-83" target="IzKSU4AfZoBt4SEV6XKU-88">
          <mxGeometry relative="1" as="geometry" />
        </mxCell>
        <mxCell id="IzKSU4AfZoBt4SEV6XKU-83" value="Change Volume" style="rhombus;whiteSpace=wrap;html=1;" vertex="1" parent="1">
          <mxGeometry x="600" y="510" width="80" height="80" as="geometry" />
        </mxCell>
        <mxCell id="IzKSU4AfZoBt4SEV6XKU-84" value="Plays the Song at Next Index" style="rounded=0;whiteSpace=wrap;html=1;" vertex="1" parent="1">
          <mxGeometry x="710" y="130" width="120" height="60" as="geometry" />
        </mxCell>
        <mxCell id="IzKSU4AfZoBt4SEV6XKU-85" value="Plays Song At Previous Index" style="rounded=0;whiteSpace=wrap;html=1;" vertex="1" parent="1">
          <mxGeometry x="710" y="220" width="120" height="60" as="geometry" />
        </mxCell>
        <mxCell id="IzKSU4AfZoBt4SEV6XKU-86" value="Toggles between Pause and Play State" style="rounded=0;whiteSpace=wrap;html=1;" vertex="1" parent="1">
          <mxGeometry x="710" y="320" width="120" height="60" as="geometry" />
        </mxCell>
        <mxCell id="IzKSU4AfZoBt4SEV6XKU-87" value="Seeks the Song to the selected position" style="rounded=0;whiteSpace=wrap;html=1;" vertex="1" parent="1">
          <mxGeometry x="710" y="420" width="120" height="60" as="geometry" />
        </mxCell>
        <mxCell id="IzKSU4AfZoBt4SEV6XKU-88" value="Changes the Volume to the respected amount in slider" style="rounded=0;whiteSpace=wrap;html=1;" vertex="1" parent="1">
          <mxGeometry x="710" y="520" width="120" height="60" as="geometry" />
        </mxCell>
        <mxCell id="IzKSU4AfZoBt4SEV6XKU-109" style="edgeStyle=orthogonalEdgeStyle;rounded=0;orthogonalLoop=1;jettySize=auto;html=1;entryX=0.011;entryY=0.602;entryDx=0;entryDy=0;entryPerimeter=0;" edge="1" parent="1" source="IzKSU4AfZoBt4SEV6XKU-81" target="IzKSU4AfZoBt4SEV6XKU-86">
          <mxGeometry relative="1" as="geometry" />
        </mxCell>
      </root>
    </mxGraphModel>
  </diagram>
</mxfile>
